# xmcd
#
# Track frame offsets:
#       271
#       18986
#       21687
#       37445
#       53843
#       54625
#       91777
#       106805
#       122061
#       131185
#       153808
#       172518
#       194072
#       200348
#       216214
#       238304
#       259607
#       268831
#
# Disc length: 4432 seconds
#
# Revision: 0
# Processed by: cddbd v1.5.1PL0 Copyright (c) Steve Scherf et al.
# Submitted via: WaveLab 4.01
#
DISCID=09114d12
DTITLE=The Uncas - Sunny Uncas
DYEAR=2004
DGENRE=alt country
TTITLE0=The Flood
TTITLE1=Grimshaw Jim
TTITLE2=Big City Sickness
TTITLE3=My Home Is A Roam
TTITLE4=Cuttin' a Shim
TTITLE5=Go On Home
TTITLE6=Oh!
TTITLE7=Ties That Bind
TTITLE8=Obed Summit
TTITLE9=Alberta
TTITLE10=Small Town Fever
TTITLE11=Nowhere At All
TTITLE12=Sonny Uncas
TTITLE13=Nipperkin (Chill on the Pull)
TTITLE14=Strong Coffee
TTITLE15=Same Man Everyday
TTITLE16=Hey Mama
TTITLE17=Roosterdoo
EXTD=
EXTT0=
EXTT1=
EXTT2=
EXTT3=
EXTT4=
EXTT5=
EXTT6=
EXTT7=
EXTT8=
EXTT9=
EXTT10=
EXTT11=
EXTT12=
EXTT13=
EXTT14=
EXTT15=
EXTT16=
EXTT17=
PLAYORDER=
